<svg width="192" height="192" version="1.1" viewBox="0 0 192 192.00001" xmlns="http://www.w3.org/2000/svg">
	<g transform="translate(0 -930.52)" fill="#f44336">
		<g>
			<path d="m72.24 933.752c-1.824 3.84-7.968 13.536-11.712 18.912 6.912 4.128 12 12.576 13.44 18.432 12.192 7.2 24.864-14.4-10.944-18.816 6.72-3.072 18.048-8.352 21.792-10.656 1.824 0.384 2.976-0.288 3.456-1.248zm-27.36 0c-1.632 3.744-7.2 13.248-10.656 18.528 6.528 4.128 11.232 12.288 12.48 18.048 12 7.2 24.672-14.016-9.984-18.336 6.432-3.072 17.184-8.352 20.928-10.56 1.728 0.288 2.88-0.288 3.36-1.344zm-26.976 0c-1.344 3.84-6.24 13.44-9.312 18.912 6.144 4.128 10.464 12.576 11.424 18.336 11.808 7.392 24.864-13.92-9.12-18.72 6.336-3.264 16.608-8.736 20.16-11.136 1.824 0.288 2.976-0.288 3.456-1.344zm6.528 42.528c-0.288 5.664-5.376 9.984-9.888 11.328-3.456 1.44-6.144 4.32-5.184 8.544 1.248 4.32 6.144 5.952 10.272 4.128 6.144-2.496 10.752-11.136 5.952-24zm46.272-1.536c-2.304 5.28-7.296 14.208-11.904 20.64-4.128-5.184-6.24-11.904-7.008-20.64 2.112-0.288 3.072-1.152 3.36-2.592l-18.432-1.536c-0.288 23.52 0.864 39.84-34.56 52.704l0.576 1.152c40.704-8.064 46.944-21.792 48.48-40.512 2.304 21.312 8.736 35.328 31.2 40.992 0.768-8.064 4.8-12.384 11.808-14.016l0.096-1.152c-16.8-1.92-27.456-5.76-33.984-12.576 7.872-3.36 15.84-7.776 21.504-11.232 2.304 0.384 3.264-0.192 3.744-1.152z" style=""/>
			<path d="m127.248 1014.49v-15.84h35.04v15.84zm34.08-18.528h-33.312l-14.208-5.376v34.176h1.92c5.472 0 11.52-2.88 11.52-4.032v-3.552h35.04v7.104h2.4c4.32 0 11.136-2.208 11.232-2.88v-20.544c2.016-0.48 3.264-1.344 3.84-2.112l-12.48-9.312zm17.184-56.832-6.528 6.528h-21.024v-7.968c2.688-0.48 3.36-1.44 3.456-2.784l-17.856-1.248v12h-22.08c-0.384-1.92-0.96-3.936-1.824-6.048h-1.248c0.096 4.992-3.84 9.6-7.2 11.328-3.36 1.632-5.568 4.608-4.416 8.352 1.44 4.128 6.432 5.28 9.792 3.168 3.552-2.112 6.048-7.104 5.376-14.112h57.6c-0.48 2.688-1.248 5.76-1.92 8.448-2.496-1.92-4.512-3.36-4.512-3.36l-6.048 7.488h-9.312v-4.896c2.688-0.48 3.264-1.44 3.456-2.784l-17.376-1.344v9.024h-24.576l0.768 2.688h23.808v8.928h-26.496l0.768 2.688h25.728v9.408h-36.768l0.768 2.688h84.384c1.344 0 2.4-0.48 2.688-1.536-4.32-3.648-11.328-8.832-11.328-8.832l-6.24 7.68h-19.584v-9.408h25.248c1.344 0 2.4-0.48 2.688-1.536-4.128-3.456-10.656-8.352-10.656-8.352l-5.856 7.2h-11.424v-8.928h23.808c1.344 0 2.4-0.48 2.688-1.536-1.248-1.056-2.688-2.208-4.128-3.264 4.608-2.208 9.696-5.28 12.96-7.776 2.016-0.192 2.976-0.384 3.744-1.248z" style=""/>
		</g>
		<g>
			<path d="m7.75341 1045.27c0.672 6.72-1.824 14.4-4.224 17.376-2.304 2.016-3.36 4.896-1.824 7.392 1.92 2.784 6.432 2.208 8.448-0.768 2.784-4.224 3.552-12.864-0.96-24zm19.008-1.152v-11.712c2.592-0.384 3.36-1.344 3.552-2.688l-16.416-1.632v91.104h2.592c4.896 0 10.272-2.496 10.272-3.552v-69.408c1.44 3.744 2.688 8.64 2.496 12.96 7.104 7.2 16.992-7.296-2.208-15.168zm26.016 49.056v-8.448h19.296v8.448zm19.296-19.008v7.872h-19.296v-7.872zm4.032-11.808h-7.872v-8.928h19.2c1.344 0 2.4-0.48 2.688-1.536-4.032-3.648-10.752-8.832-10.752-8.832l-5.856 7.68h-5.28v-8.064h21.888c1.344 0 2.4-0.48 2.688-1.536-4.32-3.84-11.52-9.408-11.52-9.408l-6.336 8.256h-6.72v-7.392c2.304-0.384 2.976-1.248 3.072-2.496l-16.512-1.344v11.232h-20.448l0.768 2.688h19.68v8.064h-16.512l0.768 2.688h15.744v8.928h-22.944l0.768 2.688h44.16l-5.664 6.432h-17.76l-13.92-5.472v52.992h2.016c5.664 0 11.328-3.072 11.328-4.416v-18.72h19.296v7.008c0 1.152-0.384 1.728-1.728 1.728-1.824 0-9.6-0.384-9.6-0.384v1.152c4.32 0.864 5.856 2.304 7.2 4.32 1.248 1.92 1.632 5.088 1.824 9.504 13.92-1.248 15.84-6.144 15.84-14.784v-28.032c2.016-0.48 3.168-1.344 3.84-2.112l-12.192-9.216h13.92c1.344 0 2.4-0.48 2.688-1.536-4.32-3.84-11.424-9.408-11.424-9.408z" style=""/>
			<path d="m173.065 1071.67c-0.576 6.24-1.632 12.672-3.264 18.816-3.744-4.992-6.624-11.04-8.352-18.816zm-45.6 22.464h-1.056v-13.536h16.128c0.576 0 1.152-0.096 1.536-0.288v14.784c-3.936-3.936-10.56-9.696-10.56-9.696zm1.632-34.08h13.344c0.672 0 1.152-0.096 1.632-0.288v18.336c-4.032-3.648-9.696-8.256-9.696-8.256l-5.952 8.064h-4.032c4.512-4.128 9.12-9.216 12.096-12.768 2.112 0.096 3.264-0.672 3.648-1.824zm49.632 2.208-6.432 6.72h-15.456v-31.2h15.168v11.808c0 1.152-0.384 1.728-1.728 1.728-2.4 0-10.656-0.576-10.656-0.576v1.248c4.608 0.768 6.336 2.112 7.68 3.84 1.44 1.728 1.824 4.416 2.016 8.064 13.728-1.056 15.648-5.472 15.648-12.96v-11.04c2.016-0.384 3.264-1.248 3.84-2.016l-12.192-9.12-5.568 6.336h-13.728l-13.248-5.472v27.84c-4.128-4.032-10.272-9.312-10.272-9.312l-6.336 9.216h-1.056v-12.288h14.304c1.344 0 2.4-0.48 2.592-1.536-3.648-3.744-10.176-9.408-10.176-9.408l-5.76 8.256h-0.96v-10.464c2.304-0.384 2.976-1.248 3.072-2.4l-16.032-1.344v14.208h-13.632l0.767997 2.688h12.864v12.288h-15.84l0.768 2.688h26.304c-0.576 5.376-1.728 12.48-2.784 17.856h-8.16c6.144-1.632 8.64-12.48-9.12-17.568l-0.864 0.384c1.632 4.032 3.072 9.696 2.88 14.88 1.248 1.248 2.592 2.016 3.936 2.304h-12.864l0.768 2.688h14.976v13.536h-14.496l0.768 2.688h13.728v22.272h2.4c6.624 0 10.464-2.496 10.56-3.168v-19.104h15.168c1.248 0 2.112-0.384 2.496-1.056v23.328h2.112c5.76 0 10.656-3.168 10.656-4.8v-42.624h3.072c1.152 12.672 3.072 21.984 6.24 29.568-2.688 6.432-6.336 12.288-11.136 17.088l0.768 1.056c5.664-3.072 10.368-6.624 14.304-10.656 2.4 3.744 5.28 7.104 8.736 10.272 2.208-6.432 6.528-10.464 11.904-11.424l0.288-1.056c-4.704-2.208-9.216-4.704-13.248-7.968 4.704-7.776 7.392-16.416 8.928-25.056 2.112-0.288 2.88-0.672 3.456-1.728z" style=""/>
		</g>
	</g>
</svg>
