<svg id="レイヤー_1" data-name="レイヤー 1" xmlns="http://www.w3.org/2000/svg" xmlns:xlink="http://www.w3.org/1999/xlink" width="1440" height="1440" viewBox="0 0 1440 1440"><defs><style>.cls-1{fill:url(#名称未設定グラデーション_27);}.cls-2{fill:url(#名称未設定グラデーション_27-2);}</style><linearGradient id="名称未設定グラデーション_27" x1="720" y1="275" x2="720" y2="1165" gradientUnits="userSpaceOnUse"><stop offset="0" stop-color="#3299ff"/><stop offset="0.2865" stop-color="#2994ff"/><stop offset="0.7613" stop-color="#0f87ff"/><stop offset="1" stop-color="#007fff"/></linearGradient><linearGradient id="名称未設定グラデーション_27-2" x1="720" y1="0" x2="720" y2="1440" xlink:href="#名称未設定グラデーション_27"/></defs><title>square</title><path class="cls-1" d="M995,275a84.7335,84.7335,0,0,0-60.1043,24.8962l0,0L530,704.7915V360a85,85,0,0,0-170,0v720a85,85,0,0,0,170,0V945.2085L674.6076,800.6009l252.2785,330.2554.0014.0019.5656.74.01-.0078a84.9871,84.9871,0,1,0,135.0733-103.1816l.01-.0078L795.8879,679.3206,1055.1045,420.104l0,0A85,85,0,0,0,995,275Z"/><path class="cls-2" d="M1411.708,219.8154A359.6341,359.6341,0,0,0,1080,0H360A359.6341,359.6341,0,0,0,0,360v720a359.6341,359.6341,0,0,0,360,360h720a359.6341,359.6341,0,0,0,360-360V360A358.1613,358.1613,0,0,0,1411.708,219.8154ZM1302.5,1080c0,122.6865-99.8135,222.5-222.5,222.5H360c-122.687,0-222.5-99.8135-222.5-222.5V360c0-122.687,99.813-222.5,222.5-222.5h720c122.6865,0,222.5,99.813,222.5,222.5Z"/></svg>