<svg xmlns="http://www.w3.org/2000/svg" xmlns:xlink="http://www.w3.org/1999/xlink" width="1024" height="1024" viewBox="0 0 1024 1024"><defs><style>.a{fill:url(#a);}</style><linearGradient id="a" x1="512" y1="1024" x2="512" gradientUnits="userSpaceOnUse"><stop offset="0" stop-color="#3299ff"/><stop offset="1" stop-color="#007fff"/></linearGradient></defs><title>reverse</title><path class="a" d="M905.6238,901.2653q5.7848,16.7152,5.8092,31.2288,0,39.2154-29.7765,65.3623Q851.87,1024.0011,812.6635,1024a80.197,80.197,0,0,1-36.3119-8.7138,79.1589,79.1589,0,0,1-29.0483-24.6935l-315.19-415.4094L294.1275,707.3591v228.04q0,39.2154-25.4185,63.91Q243.28,1024.0224,202.6216,1024q-39.2169,0-64.6361-25.4175-25.4292-25.3972-25.4185-63.1838V95.8639q0-37.7541,26.1447-63.1838Q164.8564,7.2844,205.5263,7.2626q39.2171,0,63.9089,24.6913,24.6817,24.7153,24.6923,63.91v395.075L758.9218,33.4062Q792.3174.0106,830.0933,0q33.3955,0,56.6484,27.597,23.2155,27.6077,23.239,58.0986,0,30.5032-26.1458,56.6474L567.194,444.46,891.0986,872.9411A104.3664,104.3664,0,0,1,905.6238,901.2653Z"/></svg>